Format                           : Matroska
File size                        : 3.61 GiB
Duration                         : 2h 13mn
Overall bit rate                 : 3877 Kbps

Video
ID                               : 1
Format                           : AVC
Format/Info                      : Advanced Video Codec
Bit rate                         : 3196 Kbps
Maximum bit rate                 : 62.5 Mbps
Width                            : 1920 pixels
Height                           : 800 pixels
Display aspect ratio             : 2.40:1
Frame rate                       : 25.000 fps
Color space                      : YUV
Chroma subsampling               : 4:2:0
Stream size                      : 3.02 GiB (84%)
Title                            : 1080P BluRay ~ Ashish7(wall.e)

Audio #1
ID                               : 2
Format                           : AC-3
Format/Info                      : Audio Coding 3
Bit rate                         : 448 Kbps
Channel(s)                       : 6 channels
Channel positions                : Front: L C R, Side: L R, LFE
Sampling rate                    : 48.0 KHz
Bit depth                        : 16 bits
Stream size                      : 428 MiB (12%)
Title                            : 5.1 Hindi Audio ~ Ashish7(wall.e)

Audio #2
ID                               : 3
Format                           : MPEG Audio
Channel(s)                       : 2 channels
Sampling rate                    : 48.0 KHz
Stream size                      : 107 MiB (3%)
Title                            : 5.1 English Audio ~ Ashish7(wall.e)